<svg width="1280" height="818" viewBox="0 0 1280 818" fill="none" xmlns="http://www.w3.org/2000/svg">
<path d="M1280 409C1280 367.687 1228.39 334.636 1164.39 334.636H1073.55L1152 305.717C1207.74 285.061 1226.32 239.616 1195.35 204.5C1162.32 169.384 1092.13 156.99 1036.39 177.646L957.935 206.566L1003.35 156.99C1036.39 121.874 1015.74 76.4293 960 55.7727C904.258 35.1162 832 47.5101 801.032 82.6263L755.613 132.202V74.3636C755.613 33.0505 704 0 640 0C576 0 524.387 33.0505 524.387 74.3636V132.202L478.968 82.6263C445.935 47.5101 375.742 35.1162 320 55.7727C264.258 76.4293 245.677 121.874 276.645 156.99L322.064 206.566L243.613 177.646C187.871 156.99 115.613 169.384 84.6452 204.5C51.6129 239.616 72.2581 285.061 128 305.717L206.452 334.636H115.613C51.6129 334.636 0 367.687 0 409C0 450.313 51.6129 483.364 115.613 483.364H206.452L128 512.283C72.2581 532.939 53.6774 578.384 84.6452 613.5C117.677 648.616 187.871 661.01 243.613 640.354L322.064 611.434L276.645 661.01C243.613 696.126 264.258 741.571 320 762.227C375.742 782.884 448 770.49 478.968 735.374L524.387 685.798V743.636C524.387 784.95 576 818 640 818C704 818 755.613 784.95 755.613 743.636V685.798L801.032 735.374C834.064 770.49 904.258 782.884 960 762.227C1015.74 741.571 1034.32 696.126 1003.35 661.01L957.935 611.434L1036.39 640.354C1092.13 661.01 1164.39 648.616 1195.35 613.5C1228.39 578.384 1207.74 532.939 1152 512.283L1073.55 483.364H1164.39C1228.39 483.364 1280 450.313 1280 409Z" fill="#171717"/>
</svg>
